<?xml version="1.0" encoding="utf-8"?>
<!-- Generator: Adobe Illustrator 23.0.3, SVG Export Plug-In . SVG Version: 6.00 Build 0)  -->
<svg version="1.1" id="Layer_1" xmlns="http://www.w3.org/2000/svg" xmlns:xlink="http://www.w3.org/1999/xlink" x="0px" y="0px"
	 viewBox="0 0 512 511.9" style="enable-background:new 0 0 512 511.9;" xml:space="preserve">
<style type="text/css">
	.st0{fill:#fff;}
</style>
<g>
	<path class="st0" d="M512,256C512,115,397,0,256,0S0,115,0,256c0,77.7,35.3,147.6,90.1,194.6c0.7,0.7,1.3,1.3,2.6,1.9
		c44.4,37.2,101.2,59.4,163.9,59.4c61.4,0,118.2-22.2,162.6-58.1c2.6-0.7,4.6-2.6,5.9-4.6C478.1,401.6,512,333.1,512,256z M23.5,256
		C23.5,128,128,23.5,256,23.5S488.5,128,488.5,256c0,62.7-24.8,119.5-65.3,161.3c-6.5-30.7-26.1-83-86.2-116.9
		c13.7-17,21.5-39.2,21.5-62.7c0-56.2-45.7-101.9-101.9-101.9s-101.9,45.7-101.9,101.9c0,23.5,8.5,45.1,21.5,62.7
		c-60.7,33.9-80.2,86.2-86.1,116.9C49,376.2,23.5,318.7,23.5,256z M177.7,238.4c0-43.1,35.3-78.4,78.4-78.4s78.4,35.3,78.4,78.4
		s-35.3,78.4-78.4,78.4S177.7,281.5,177.7,238.4z M111,437.6c1.3-18.9,11.7-83,82.3-118.9c17.7,13.7,39.2,21.5,62.7,21.5
		s45.7-8.5,63.4-22.2c69.9,35.9,81,98.6,83,118.9c-39.8,32-90.8,51.6-145.6,51.6C201.2,488.5,150.9,469.6,111,437.6z"/>
</g>
</svg>
